<svg width="29" height="26" viewBox="0 0 29 26" fill="none" xmlns="http://www.w3.org/2000/svg">
<path d="M17.2338 22.7486L17.2339 22.7485C18.8007 21.5338 20.7051 19.9827 22.4475 18.362C24.204 16.7284 25.7383 15.0764 26.6157 13.66L26.6161 13.6594C27.8972 11.5946 28.3164 9.02747 27.7581 6.64451L27.755 6.63105L27.7551 6.63103C26.5924 1.33953 20.1673 -0.783187 16.1994 2.72514L16.197 2.72732C15.9812 2.91683 15.7764 3.13214 15.5283 3.39431C15.4298 3.49836 15.3249 3.60916 15.2161 3.7208L14.5 4.45558L13.7839 3.7208C13.6751 3.60915 13.5701 3.49831 13.4718 3.39432L17.2338 22.7486ZM17.2338 22.7486C16.8074 23.0793 15.9832 23.6856 15.2539 24.2175C14.9773 24.4193 14.7166 24.6087 14.5 24.7657M17.2338 22.7486L12.803 2.72732M14.5 26C14.5 26 16.9663 24.2216 17.8467 23.5388L14.5 26ZM14.5 26L13.9151 25.1889L13.9152 25.1888L13.9155 25.1886L13.9168 25.1877L13.922 25.1839L13.9427 25.169L14.0221 25.1117L14.3126 24.9015C14.3703 24.8597 14.433 24.8143 14.5 24.7657M14.5 26L15.0849 25.1889L15.0848 25.1888L15.0845 25.1886L15.0832 25.1877L15.078 25.1839L15.0573 25.169L14.9779 25.1117L14.6874 24.9015C14.6297 24.8597 14.567 24.8143 14.5 24.7657M14.5 26C14.5 26 12.0337 24.2216 11.1533 23.5388L14.5 26ZM14.5 24.7657C14.2834 24.6087 14.0227 24.4193 13.7461 24.2175C13.0168 23.6856 12.1926 23.0793 11.7662 22.7486L11.7661 22.7485C10.1993 21.5338 8.29492 19.9827 6.55248 18.362C4.79598 16.7284 3.26167 15.0764 2.38428 13.66L2.3839 13.6594C1.1028 11.5946 0.683638 9.02748 1.24189 6.64451L1.24198 6.64453L1.24495 6.63103C2.40765 1.33953 8.83273 -0.783185 12.8006 2.72515L12.803 2.72732M12.803 2.72732C13.0188 2.9168 13.2236 3.13206 13.4716 3.39417L12.803 2.72732Z" stroke="#55721E" stroke-width="2"/>
</svg>
