<svg width="36" height="31" viewBox="0 0 36 31" fill="none" xmlns="http://www.w3.org/2000/svg">
<path d="M21.2584 26.8626L21.2586 26.8624C23.2002 25.4166 25.5573 23.5725 27.712 21.6476C29.8891 19.7028 31.769 17.7546 32.835 16.1018L32.8356 16.1009C34.3779 13.7132 34.8793 10.7509 34.2097 8.00579L34.2072 7.99534L34.2048 7.98486C32.8229 1.94443 25.083 -0.597951 20.2583 3.49933L20.2546 3.5025C19.9981 3.71883 19.7529 3.96613 19.4435 4.28011L21.2584 26.8626ZM21.2584 26.8626C20.7328 27.2541 19.7128 27.9748 18.8068 28.6095C18.5167 28.8127 18.2408 29.0054 18 29.1732M21.2584 26.8626L18 29.1732M18 29.1732C17.7593 29.0054 17.4833 28.8127 17.1932 28.6095C16.2872 27.9748 15.2673 27.2541 14.7416 26.8626L14.7414 26.8624C12.7999 25.4166 10.4427 23.5725 8.28798 21.6476C6.11094 19.7028 4.231 17.7546 3.16505 16.1018L3.16446 16.1009C1.62207 13.7132 1.12072 10.7509 1.79028 8.00579L1.79282 7.99535L1.79522 7.98487C3.17712 1.94443 10.917 -0.597948 15.7417 3.49933L15.7454 3.50249C16.0019 3.71888 16.2472 3.96624 16.5567 4.28031C16.6787 4.40416 16.8103 4.53774 16.9471 4.67253L18 5.71012L19.0529 4.67254C19.1896 4.53776 19.3213 4.40422 19.4433 4.2803L18 29.1732Z" stroke="#55721E" stroke-width="3"/>
</svg>
