<svg width="784" height="330" viewBox="0 0 784 330" fill="none" xmlns="http://www.w3.org/2000/svg">
<path d="M62.5566 170.868L62.745 171.053C59.6989 173.683 54.1091 175.323 45.9753 175.972C44.6877 177.426 43.2275 178.571 41.5944 179.406C39.9616 180.242 38.5327 180.659 37.3078 180.659C36.5229 180.659 35.9732 180.489 35.6592 180.149C35.4081 179.685 35.3765 179.159 35.5648 178.571C35.7535 177.952 36.5542 177.365 37.9673 176.808C39.3806 176.22 41.1705 175.88 43.3373 175.787C44.6563 174.271 45.6926 172.786 46.4464 171.332C47.2 169.878 47.5926 168.795 47.624 168.083C47.6556 167.898 47.5926 167.728 47.4356 167.573C47.2785 167.418 47.0274 167.341 46.682 167.341C45.1746 167.341 43.4788 168.037 41.5944 169.429C39.7416 170.821 38.2028 172.275 36.9782 173.791C35.3764 176.699 34.0733 179.128 33.0683 181.077C31.7807 183.645 30.6345 185.872 29.6296 187.76C28.5933 189.647 27.2743 191.828 25.6726 194.303C24.0397 196.778 22.4381 198.897 20.8679 200.661C19.2977 202.424 17.4606 204.141 15.3565 205.812C13.2525 207.482 11.0699 208.782 8.8088 209.71C5.54279 211.102 2.60653 211.674 0 211.427C3.109 211.272 5.82543 210.669 8.14933 209.617C10.4732 208.565 12.9384 206.802 15.5449 204.327C16.016 203.863 16.4714 203.398 16.911 202.934C17.3193 202.471 17.7746 201.913 18.2771 201.264C18.7482 200.645 19.1407 200.135 19.4547 199.732C19.7688 199.33 20.2084 198.696 20.7737 197.83C21.3076 196.963 21.7158 196.329 21.9985 195.927C22.2497 195.525 22.7208 194.751 23.4116 193.607C24.0711 192.493 24.5265 191.72 24.7778 191.286C24.9976 190.884 25.5314 189.972 26.3793 188.548C27.2272 187.125 27.7926 186.151 28.0751 185.625C28.8289 184.326 30.2891 181.835 32.456 178.153C34.6229 174.472 36.6169 171.053 38.4384 167.898C40.2912 164.742 41.2806 163.071 41.406 162.886C43.6042 159.173 44.9391 156.946 45.4102 156.203C47.42 153.141 49.8852 150.758 52.8056 149.057H53.3239C53.2612 149.119 53.0098 149.289 52.5703 149.567C52.1619 149.815 51.6908 150.14 51.157 150.542C50.6545 150.913 49.9637 151.64 49.0844 152.723C48.2366 153.775 47.357 155.059 46.4464 156.575C45.0647 158.926 42.1127 164.278 37.5905 172.631C39.1606 170.93 40.7781 169.584 42.4426 168.594C44.1067 167.573 45.5042 167.062 46.6348 167.062C47.7968 167.062 48.4877 167.588 48.7074 168.64C49.1785 170.806 48.3464 173.142 46.2109 175.648C54.1246 175.029 59.5732 173.436 62.5566 170.868ZM35.7535 178.85C35.5648 179.221 35.5807 179.546 35.8004 179.824C35.9888 180.103 36.3345 180.242 36.8369 180.242C38.5641 180.242 40.6524 178.865 43.1018 176.112C39.0821 176.359 36.6327 177.272 35.7535 178.85ZM83.1421 170.868L83.4245 171.053C80.9122 174.766 78.5883 177.952 76.453 180.613C74.3175 183.243 72.496 185.223 70.9886 186.553C69.5126 187.852 68.2879 188.796 67.3143 189.384C66.3721 189.972 65.54 190.328 64.8178 190.451C64.5665 190.513 64.3154 190.513 64.064 190.451C63.4359 190.358 62.902 190.049 62.4626 189.523C62.0228 188.966 61.7559 188.487 61.6616 188.084C61.5362 187.682 61.4576 187.326 61.426 187.017C61.0806 184.975 61.3791 182.732 62.3211 180.288C63.2946 177.813 64.5509 175.539 66.0897 173.466C66.6235 172.755 67.7855 170.961 69.5756 168.083C69.9837 167.526 70.078 167.109 69.858 166.83C69.2299 166.088 68.3664 165.516 67.2672 165.113C66.0739 167.496 64.5978 169.522 62.8393 171.193L62.6509 170.961C64.6608 169.104 66.2781 166.66 67.5027 163.628L68.7746 160.844L70.0936 161.215L68.3506 165.113C69.1985 165.639 69.9523 166.304 70.6118 167.109C71.2713 167.913 71.5224 168.671 71.3654 169.383C71.2084 170.032 70.5333 171.208 69.34 172.91C68.178 174.611 66.9531 176.699 65.6657 179.174C64.3781 181.649 63.4675 184.217 62.9334 186.878C62.5253 188.858 62.9179 189.956 64.1112 190.173H64.8178C65.5087 190.049 66.3252 189.709 67.2672 189.152C68.2094 188.564 69.4027 187.621 70.8474 186.321C72.3232 184.991 74.1133 183.011 76.2175 180.381C78.3527 177.721 80.6611 174.549 83.1421 170.868ZM108.108 170.961C105.093 172.693 102.361 173.559 99.9117 173.559C97.2424 173.559 95.0597 172.832 93.3639 171.378C90.3178 177.009 87.5541 179.994 85.0734 180.335C84.2252 180.366 83.5816 180.103 83.1421 179.546C82.7023 178.958 82.404 178.355 82.247 177.736C81.8073 175.972 82.0586 173.9 83.0006 171.518C83.9114 169.135 85.2302 167.31 86.9576 166.041C88.8417 164.711 90.5847 164.046 92.1864 164.046C93.254 164.046 93.9449 164.711 94.259 166.041C94.259 166.072 94.259 166.196 94.259 166.413C94.259 166.629 94.2745 166.784 94.3061 166.877C94.3688 166.939 94.4787 166.985 94.6357 167.016C95.0441 167.109 95.1227 167.666 94.8713 168.687C94.7772 168.996 94.6516 169.306 94.4945 169.615C94.3375 169.893 94.1963 170.125 94.0706 170.311C93.9762 170.466 93.8664 170.62 93.7407 170.775C93.6153 170.93 93.5523 171.022 93.5523 171.053C95.2481 172.508 97.3364 173.234 99.8174 173.234C102.33 173.234 105.046 172.384 107.967 170.682L108.108 170.961ZM91.6681 173.652C92.2963 172.724 92.6259 171.811 92.6572 170.914C92.3748 170.759 92.2805 170.419 92.3748 169.893C92.4688 169.336 92.8614 168.424 93.5523 167.155C93.9607 166.598 94.0234 166.011 93.7407 165.392C93.4582 164.773 92.9558 164.464 92.2333 164.464C91.2597 164.464 90.3178 164.912 89.4069 165.809C86.4865 168.501 84.5393 171.858 83.566 175.88C83.1576 177.55 83.2361 178.772 83.8013 179.546C83.8956 179.638 84.0685 179.778 84.3196 179.963L84.7435 180.056C86.8477 180.056 89.1558 177.921 91.6681 173.652ZM112.583 167.341L111.217 168.408C110.903 168.996 110.416 169.909 109.757 171.146C109.129 172.353 108.658 173.25 108.343 173.838C109.505 174.054 110.903 174.163 112.536 174.163C117.655 174.163 122.193 173.064 126.15 170.868L126.244 171.146C122.256 173.343 117.686 174.441 112.536 174.441C110.872 174.441 109.411 174.333 108.155 174.116C108.03 177.921 106.334 183.769 103.068 191.658C102.973 191.905 102.801 192.308 102.549 192.864C102.298 193.452 102.11 193.885 101.984 194.164L101.655 194.953H101.608C100.163 198.046 98.7653 200.537 97.415 202.424C96.0333 204.311 94.9498 205.255 94.1646 205.255C93.6622 205.255 93.3481 204.853 93.2227 204.048C92.9713 202.594 93.4582 200.166 94.6829 196.762C95.9076 193.359 97.572 189.601 99.6762 185.486C101.749 181.34 103.507 177.937 104.952 175.276C106.397 172.585 107.747 170.156 109.003 167.991C109.443 167.217 110.275 165.732 111.5 163.536C112.756 161.339 113.588 159.885 113.996 159.173C114.436 158.431 115.127 157.24 116.069 155.6C117.042 153.929 117.765 152.723 118.236 151.98C118.707 151.238 119.304 150.31 120.026 149.196C120.78 148.051 121.439 147.092 122.004 146.319C122.601 145.545 123.182 144.818 123.747 144.138C126.479 140.796 128.631 139.126 130.201 139.126C130.483 139.126 130.687 139.157 130.813 139.219C131.001 139.281 131.143 139.373 131.237 139.497C132.305 140.858 130.829 144.617 126.809 150.774C124.705 154.053 122.318 157.209 119.649 160.241C116.98 163.242 114.624 165.608 112.583 167.341ZM114.75 161.772C114.719 161.958 113.651 163.938 111.547 167.712C113.431 166.289 115.834 163.969 118.754 160.751C121.675 157.534 124.297 154.146 126.621 150.588C129.604 145.978 131.159 142.684 131.284 140.704C131.284 140.023 131.111 139.621 130.766 139.497C130.138 139.311 129.431 139.497 128.646 140.054C127.893 140.58 127.327 141.075 126.95 141.539C126.605 141.972 126.103 142.653 125.443 143.581C125.38 143.643 125.333 143.689 125.302 143.72C125.302 143.751 125.286 143.798 125.255 143.859C125.223 143.89 125.192 143.921 125.16 143.952C121.549 149.119 118.079 155.059 114.75 161.772ZM102.832 191.472C105.69 184.635 107.354 179.066 107.825 174.766C105.69 178.757 104.606 180.768 104.575 180.799C102.628 184.418 100.336 189.105 97.6977 194.86C95.0597 200.645 93.9291 203.956 94.3061 204.791C94.4315 205.069 94.9026 204.775 95.7192 203.909C96.5044 203.074 97.5878 201.527 98.9695 199.268C100.32 197.041 101.608 194.442 102.832 191.472ZM145.557 170.914L145.746 171.1C142.857 174.596 139.952 177.55 137.031 179.963C134.111 182.376 131.614 183.583 129.541 183.583C129.164 183.583 128.788 183.537 128.411 183.444C127.437 183.165 126.605 182.392 125.914 181.123C125.255 179.824 124.862 178.448 124.736 176.993C124.611 175.508 124.658 174.101 124.878 172.77C125.349 170.636 126.369 168.563 127.94 166.552C129.541 164.541 131.331 163.334 133.31 162.932C134.158 162.808 134.786 162.871 135.194 163.118C135.414 163.242 135.618 163.474 135.806 163.814C136.057 164.402 136.089 165.067 135.901 165.809C135.398 167.511 134.362 168.919 132.792 170.032C131.221 171.146 129.463 171.904 127.516 172.306C127.202 173.451 126.966 174.627 126.809 175.833C126.684 177.04 126.652 178.215 126.715 179.36C126.809 180.505 127.107 181.448 127.61 182.191C128.112 182.933 128.819 183.305 129.73 183.305C130.86 183.305 132.211 182.841 133.781 181.912C135.382 180.953 136.968 179.716 138.538 178.2C140.14 176.684 141.475 175.369 142.543 174.255C143.642 173.111 144.646 171.997 145.557 170.914ZM135.382 163.628C134.911 163.164 134.283 163.041 133.498 163.257C132.273 163.598 131.111 164.711 130.012 166.598C128.945 168.486 128.16 170.28 127.657 171.981C131.049 171.239 133.498 169.63 135.006 167.155C135.32 166.598 135.508 166.119 135.571 165.717C135.822 164.727 135.759 164.031 135.382 163.628ZM166.755 171.239C165.122 173.064 163.379 174.673 161.526 176.065C159.705 177.426 157.977 178.478 156.345 179.221C154.743 179.963 153.44 180.505 152.435 180.845C151.461 181.185 150.55 181.448 149.702 181.634C148.541 185.501 146.939 188.641 144.898 191.054C142.825 193.468 140.674 195.092 138.444 195.927C137.251 196.391 136.183 196.623 135.241 196.623C134.079 196.623 133.168 196.298 132.509 195.649C131.818 195.03 131.473 194.133 131.473 192.957C131.473 192.71 131.535 192.308 131.661 191.751C133.011 186.677 138.35 183.305 147.677 181.634C148.713 178.664 149.467 175.245 149.938 171.378L150.221 167.48C150.315 166.088 150.519 165.036 150.833 164.324C149.922 165.345 149.059 166.413 148.242 167.526C147.426 168.64 146.813 169.506 146.405 170.125C146.028 170.744 145.84 171.069 145.84 171.1L145.604 170.961C145.604 170.899 145.84 170.512 146.311 169.8C146.782 169.058 147.504 168.037 148.478 166.738C149.451 165.438 150.456 164.247 151.493 163.164C151.932 162.731 152.372 162.313 152.812 161.911C153.283 161.509 153.644 161.215 153.895 161.03L154.272 160.751L155.544 162.097C154.162 163.149 153.424 163.721 153.33 163.814C151.948 164.959 151.179 166.583 151.021 168.687C150.99 169.089 150.975 170.558 150.975 173.095C151.006 175.601 150.818 177.504 150.409 178.803C150.126 180.041 149.907 180.861 149.75 181.263C150.598 181.077 151.524 180.814 152.529 180.474C153.565 180.133 154.853 179.608 156.392 178.896C157.962 178.153 159.642 177.102 161.432 175.74C163.222 174.379 164.918 172.817 166.519 171.053L166.755 171.239ZM135.053 196.298C136.435 196.298 137.816 195.834 139.198 194.906C140.548 193.978 141.742 192.771 142.778 191.286C143.814 189.801 144.709 188.332 145.463 186.878C146.248 185.393 146.892 183.939 147.394 182.516L147.63 181.959C143.39 182.67 139.983 183.8 137.408 185.346C134.676 186.955 132.917 188.935 132.132 191.286C131.473 193.205 131.708 194.643 132.839 195.602C133.404 196.066 134.142 196.298 135.053 196.298ZM187.953 171.239C186.32 173.064 184.577 174.673 182.724 176.065C180.902 177.426 179.175 178.478 177.542 179.221C175.941 179.963 174.637 180.505 173.632 180.845C172.659 181.185 171.748 181.448 170.9 181.634C169.738 185.501 168.137 188.641 166.095 191.054C164.023 193.468 161.872 195.092 159.642 195.927C158.449 196.391 157.381 196.623 156.439 196.623C155.277 196.623 154.366 196.298 153.707 195.649C153.016 195.03 152.67 194.133 152.67 192.957C152.67 192.71 152.733 192.308 152.859 191.751C154.209 186.677 159.548 183.305 168.875 181.634C169.911 178.664 170.665 175.245 171.136 171.378L171.419 167.48C171.513 166.088 171.717 165.036 172.031 164.324C171.12 165.345 170.257 166.413 169.44 167.526C168.624 168.64 168.011 169.506 167.603 170.125C167.226 170.744 167.038 171.069 167.038 171.1L166.802 170.961C166.802 170.899 167.038 170.512 167.509 169.8C167.98 169.058 168.702 168.037 169.676 166.738C170.649 165.438 171.654 164.247 172.69 163.164C173.13 162.731 173.57 162.313 174.009 161.911C174.48 161.509 174.841 161.215 175.093 161.03L175.47 160.751L176.741 162.097C175.36 163.149 174.622 163.721 174.527 163.814C173.146 164.959 172.376 166.583 172.219 168.687C172.188 169.089 172.172 170.558 172.172 173.095C172.203 175.601 172.015 177.504 171.607 178.803C171.324 180.041 171.104 180.861 170.947 181.263C171.795 181.077 172.722 180.814 173.727 180.474C174.763 180.133 176.051 179.608 177.589 178.896C179.159 178.153 180.84 177.102 182.63 175.74C184.42 174.379 186.115 172.817 187.717 171.053L187.953 171.239ZM156.25 196.298C157.632 196.298 159.014 195.834 160.396 194.906C161.746 193.978 162.939 192.771 163.976 191.286C165.012 189.801 165.907 188.332 166.661 186.878C167.446 185.393 168.09 183.939 168.592 182.516L168.828 181.959C164.588 182.67 161.181 183.8 158.606 185.346C155.874 186.955 154.115 188.935 153.33 191.286C152.67 193.205 152.906 194.643 154.036 195.602C154.602 196.066 155.34 196.298 156.25 196.298ZM196.761 159.498C196.793 159.9 196.636 160.272 196.29 160.612C195.976 160.952 195.599 161.138 195.16 161.169C194.752 161.2 194.375 161.076 194.029 160.798C193.715 160.488 193.558 160.148 193.558 159.777C193.558 159.374 193.731 158.988 194.076 158.616C194.453 158.245 194.846 158.029 195.254 157.967C195.631 157.936 195.976 158.091 196.29 158.431C196.604 158.74 196.761 159.096 196.761 159.498ZM204.722 171.1C204 172.183 203.262 173.265 202.508 174.348C201.786 175.431 200.781 176.792 199.493 178.432C198.237 180.041 197.028 181.433 195.866 182.608C194.736 183.784 193.511 184.805 192.192 185.671C190.904 186.538 189.758 186.971 188.753 186.971C187.058 186.971 185.817 186.12 185.032 184.418C184.247 182.717 184.278 180.226 185.126 176.947C185.597 175.369 186.335 173.544 187.34 171.471C188.345 169.367 189.224 167.681 189.978 166.413C190.763 165.113 191.219 164.402 191.344 164.278H194.218C188.942 173.219 186.335 179.499 186.398 183.119C186.429 184.109 186.665 184.944 187.105 185.625C187.544 186.306 188.157 186.646 188.942 186.646C189.319 186.646 189.648 186.584 189.931 186.46C190.81 186.182 191.799 185.641 192.899 184.836C194.029 184.032 195.647 182.438 197.751 180.056C199.855 177.643 202.116 174.611 204.534 170.961L204.722 171.1ZM229.17 170.961C226.155 172.693 223.423 173.559 220.974 173.559C218.305 173.559 216.122 172.832 214.426 171.378C211.38 177.009 208.616 179.994 206.135 180.335C205.287 180.366 204.644 180.103 204.204 179.546C203.765 178.958 203.466 178.355 203.309 177.736C202.87 175.972 203.121 173.9 204.063 171.518C204.973 169.135 206.292 167.31 208.02 166.041C209.904 164.711 211.647 164.046 213.248 164.046C214.316 164.046 215.007 164.711 215.321 166.041C215.321 166.072 215.321 166.196 215.321 166.413C215.321 166.629 215.337 166.784 215.368 166.877C215.431 166.939 215.541 166.985 215.698 167.016C216.106 167.109 216.185 167.666 215.934 168.687C215.839 168.996 215.714 169.306 215.557 169.615C215.4 169.893 215.258 170.125 215.133 170.311C215.038 170.466 214.929 170.62 214.803 170.775C214.677 170.93 214.615 171.022 214.615 171.053C216.31 172.508 218.399 173.234 220.88 173.234C223.392 173.234 226.108 172.384 229.029 170.682L229.17 170.961ZM212.73 173.652C213.359 172.724 213.688 171.811 213.719 170.914C213.437 170.759 213.343 170.419 213.437 169.893C213.531 169.336 213.924 168.424 214.615 167.155C215.023 166.598 215.086 166.011 214.803 165.392C214.52 164.773 214.018 164.464 213.296 164.464C212.322 164.464 211.38 164.912 210.469 165.809C207.549 168.501 205.602 171.858 204.628 175.88C204.22 177.55 204.298 178.772 204.864 179.546C204.958 179.638 205.13 179.778 205.382 179.963L205.806 180.056C207.91 180.056 210.218 177.921 212.73 173.652ZM258.564 170.868L258.8 171.007C248.719 185.888 241.528 193.328 237.225 193.328C235.749 193.328 234.713 192.416 234.116 190.59C232.483 185.455 235.09 178.123 241.936 168.594C245.673 163.52 247.18 160.38 246.458 159.173C246.301 158.926 246.034 158.802 245.657 158.802C244.841 158.802 243.6 159.405 241.936 160.612C240.272 161.788 238.45 163.412 236.472 165.485C232.735 169.445 229.516 174.008 226.815 179.174L225.637 181.541H223.471L228.699 170.914L232.279 164H234.587L230.018 172.956C230.081 172.894 230.144 172.817 230.207 172.724C230.301 172.6 230.364 172.508 230.395 172.446C231.525 170.868 232.907 169.12 234.54 167.202C236.205 165.253 238.168 163.334 240.429 161.447C242.721 159.529 244.543 158.57 245.893 158.57C246.741 158.57 247.337 158.957 247.683 159.73C248.719 161.927 246.867 166.258 242.124 172.724C238.638 177.55 236.425 182.16 235.482 186.553C234.76 189.987 235.106 192.044 236.519 192.725C236.801 192.849 237.116 192.911 237.461 192.911C239.251 192.911 241.936 191.132 245.516 187.574C249.096 184.016 253.445 178.448 258.564 170.868ZM287.346 170.868L287.582 171.053C279.949 182.438 273.89 189.43 269.399 192.029L269.163 192.122C269.005 192.215 268.818 192.308 268.598 192.4C268.378 192.493 268.11 192.586 267.797 192.679C267.483 192.771 267.169 192.818 266.856 192.818C266.54 192.849 266.21 192.833 265.864 192.771C265.144 192.586 264.563 192.029 264.123 191.101C262.992 188.316 263.62 183.676 266.006 177.179C265.159 178.664 264.233 179.855 263.228 180.752L262.71 181.263C262.05 181.82 261.344 182.191 260.59 182.376C260.182 182.531 259.789 182.608 259.412 182.608C258.47 182.608 257.732 182.16 257.198 181.263C256.79 180.551 256.539 179.638 256.445 178.525C256.35 177.411 256.46 176.204 256.774 174.905C257.088 173.575 257.591 172.275 258.282 171.007C258.973 169.738 259.962 168.548 261.249 167.434C262.537 166.32 264.013 165.454 265.677 164.835C266.148 164.649 266.65 164.556 267.186 164.556C267.78 164.618 268.236 164.804 268.55 165.113C269.147 165.608 269.445 166.413 269.445 167.526C269.445 168.269 269.289 169.182 268.976 170.264C269.351 169.522 269.635 168.981 269.823 168.64L272.272 164.464H274.911C273.842 166.444 272.931 168.114 272.178 169.476C267.78 177.736 265.285 183.877 264.688 187.899C264.531 189.074 264.515 190.033 264.641 190.776C264.798 191.983 265.505 192.586 266.759 192.586C267.137 192.586 267.405 192.555 267.561 192.493C269.383 191.967 271.894 190.096 275.099 186.878C278.301 183.629 282.385 178.293 287.346 170.868ZM264.688 178.757C265.442 177.736 266.21 176.375 266.995 174.673C267.373 173.745 267.671 173.049 267.89 172.585C268.55 170.976 268.944 169.538 269.069 168.269C269.289 166.691 269.005 165.655 268.22 165.16C267.906 164.974 267.561 164.881 267.186 164.881C266.307 164.881 265.316 165.392 264.217 166.413C263.118 167.403 262.113 168.64 261.202 170.125C260.323 171.579 259.522 173.142 258.8 174.812C258.109 176.452 257.748 177.906 257.716 179.174C257.654 180.443 257.921 181.386 258.517 182.005C258.769 182.253 259.098 182.376 259.507 182.376C260.825 182.315 262.239 181.479 263.746 179.871L264.688 178.757ZM285.743 179.963C284.677 183.614 284.017 186.553 283.766 188.781C283.733 189.43 283.749 189.956 283.814 190.358C283.843 190.761 283.953 191.023 284.143 191.147C284.331 191.302 284.489 191.395 284.615 191.426C284.738 191.457 284.945 191.457 285.226 191.426C286.357 191.302 287.63 190.637 289.042 189.43C293.188 186.151 297.802 179.963 302.891 170.868L303.173 171.007C302.42 172.337 301.634 173.668 300.817 174.998C300.032 176.297 298.888 178.045 297.379 180.242C295.873 182.438 294.445 184.326 293.094 185.903C291.773 187.481 290.315 188.873 288.712 190.08C287.142 191.286 285.759 191.89 284.567 191.89C284.001 191.89 283.53 191.751 283.155 191.472C282.777 191.194 282.495 190.575 282.305 189.616C282.085 188.626 282.101 187.342 282.353 185.764C282.573 184.155 283.155 181.897 284.095 178.989C285.006 176.05 286.279 172.631 287.911 168.733C290.141 163.443 292.716 158.013 295.637 152.444C298.558 146.845 301.149 142.266 303.408 138.708C305.828 135.119 307.728 133.325 309.108 133.325C309.612 133.325 309.958 133.573 310.146 134.068C310.333 134.532 310.304 135.305 310.052 136.388C309.987 136.573 309.722 137.27 309.25 138.476C308.779 139.683 307.948 141.523 306.753 143.998C305.593 146.443 304.258 149.026 302.749 151.748C301.243 154.471 299.295 157.534 296.907 160.937C294.554 164.309 292.089 167.434 289.514 170.311C287.346 175.663 286.089 178.881 285.743 179.963ZM291.162 166.413C291.162 166.444 291.1 166.583 290.974 166.83C290.878 167.078 290.722 167.465 290.503 167.991C290.283 168.516 290.079 169.011 289.889 169.476C292.403 166.629 294.804 163.536 297.098 160.194C299.389 156.853 301.243 153.898 302.655 151.331C304.1 148.732 305.402 146.18 306.565 143.674C307.758 141.168 308.559 139.404 308.966 138.383C309.376 137.362 309.642 136.682 309.768 136.341C310.271 134.547 310.052 133.65 309.108 133.65C308.071 133.65 306.627 135.058 304.775 137.873C302.953 140.657 301.053 144.184 299.075 148.453C297.098 152.692 295.495 156.203 294.27 158.988C293.078 161.772 292.041 164.247 291.162 166.413ZM352.54 170.868L352.776 171.053C351.457 172.384 350.045 173.745 348.536 175.137C347.06 176.498 345.286 177.999 343.214 179.638C341.172 181.247 339.13 182.562 337.091 183.583C335.081 184.604 333.32 185.114 331.814 185.114C330.684 185.114 329.711 184.79 328.893 184.14C328.076 183.49 327.511 182.608 327.197 181.495C326.57 179.267 326.742 176.808 327.717 174.116C328.658 171.425 330.07 169.182 331.956 167.387C333.87 165.562 335.77 164.649 337.656 164.649C338.911 164.649 339.68 165.222 339.964 166.366C340.183 167.294 340.057 167.944 339.586 168.315C339.398 168.47 339.178 168.501 338.927 168.408C338.455 168.253 338.393 167.681 338.739 166.691C338.927 166.258 338.927 165.887 338.739 165.578C338.581 165.268 338.3 165.113 337.89 165.113C336.665 165.051 335.301 166.011 333.792 167.991C332.506 169.847 331.265 172.074 330.07 174.673C328.909 177.241 328.376 179.422 328.47 181.216C328.502 182.206 328.8 183.057 329.365 183.769C329.931 184.48 330.684 184.836 331.627 184.836C332.38 184.836 333.259 184.681 334.264 184.372C335.301 184.032 336.651 183.428 338.316 182.562C340.009 181.665 342.083 180.226 344.533 178.246C347.014 176.236 349.683 173.776 352.54 170.868ZM377.272 170.961C374.257 172.693 371.524 173.559 369.074 173.559C366.405 173.559 364.224 172.832 362.528 171.378C359.481 177.009 356.718 179.994 354.236 180.335C353.389 180.366 352.744 180.103 352.304 179.546C351.865 178.958 351.567 178.355 351.409 177.736C350.97 175.972 351.222 173.9 352.165 171.518C353.073 169.135 354.394 167.31 356.12 166.041C358.004 164.711 359.749 164.046 361.348 164.046C362.418 164.046 363.109 164.711 363.423 166.041C363.423 166.072 363.423 166.196 363.423 166.413C363.423 166.629 363.439 166.784 363.468 166.877C363.533 166.939 363.642 166.985 363.798 167.016C364.208 167.109 364.286 167.666 364.034 168.687C363.94 168.996 363.814 169.306 363.658 169.615C363.5 169.893 363.358 170.125 363.232 170.311C363.139 170.466 363.029 170.62 362.903 170.775C362.78 170.93 362.715 171.022 362.715 171.053C364.412 172.508 366.499 173.234 368.981 173.234C371.494 173.234 374.209 172.384 377.13 170.682L377.272 170.961ZM360.831 173.652C361.458 172.724 361.788 171.811 361.82 170.914C361.539 170.759 361.445 170.419 361.539 169.893C361.633 169.336 362.024 168.424 362.715 167.155C363.123 166.598 363.187 166.011 362.903 165.392C362.621 164.773 362.118 164.464 361.397 164.464C360.424 164.464 359.481 164.912 358.57 165.809C355.649 168.501 353.703 171.858 352.73 175.88C352.32 177.55 352.401 178.772 352.963 179.546C353.06 179.638 353.231 179.778 353.483 179.963L353.907 180.056C356.01 180.056 358.318 177.921 360.831 173.652ZM398.327 171.239C396.695 173.064 394.951 174.673 393.099 176.065C391.277 177.426 389.551 178.478 387.916 179.221C386.316 179.963 385.011 180.505 384.006 180.845C383.033 181.185 382.122 181.448 381.276 181.634C380.112 185.501 378.513 188.641 376.471 191.054C374.396 193.468 372.247 195.092 370.018 195.927C368.822 196.391 367.756 196.623 366.813 196.623C365.652 196.623 364.741 196.298 364.082 195.649C363.391 195.03 363.045 194.133 363.045 192.957C363.045 192.71 363.109 192.308 363.232 191.751C364.583 186.677 369.924 183.305 379.25 181.634C380.287 178.664 381.04 175.245 381.511 171.378L381.793 167.48C381.887 166.088 382.093 165.036 382.406 164.324C381.495 165.345 380.632 166.413 379.815 167.526C378.998 168.64 378.387 169.506 377.977 170.125C377.602 170.744 377.414 171.069 377.414 171.1L377.178 170.961C377.178 170.899 377.414 170.512 377.883 169.8C378.355 169.058 379.078 168.037 380.051 166.738C381.024 165.438 382.029 164.247 383.066 163.164C383.505 162.731 383.945 162.313 384.384 161.911C384.856 161.509 385.217 161.215 385.467 161.03L385.845 160.751L387.118 162.097C385.735 163.149 384.998 163.721 384.901 163.814C383.521 164.959 382.752 166.583 382.594 168.687C382.562 169.089 382.548 170.558 382.548 173.095C382.578 175.601 382.39 177.504 381.983 178.803C381.699 180.041 381.479 180.861 381.321 181.263C382.171 181.077 383.098 180.814 384.103 180.474C385.137 180.133 386.426 179.608 387.964 178.896C389.535 178.153 391.215 177.102 393.005 175.74C394.795 174.379 396.491 172.817 398.091 171.053L398.327 171.239ZM366.625 196.298C368.008 196.298 369.388 195.834 370.771 194.906C372.121 193.978 373.314 192.771 374.351 191.286C375.388 189.801 376.283 188.332 377.036 186.878C377.821 185.393 378.464 183.939 378.968 182.516L379.201 181.959C374.962 182.67 371.556 183.8 368.981 185.346C366.247 186.955 364.489 188.935 363.704 191.286C363.045 193.205 363.281 194.643 364.412 195.602C364.977 196.066 365.714 196.298 366.625 196.298ZM437.849 170.914L438.085 171.053C428.507 184.728 421.424 191.89 416.839 192.539C416.054 192.601 415.365 192.493 414.768 192.215C413.763 191.751 413.087 190.946 412.742 189.801C412.428 188.626 412.57 186.94 413.165 184.743C413.763 182.547 414.894 179.979 416.558 177.04C417.311 175.648 418.865 173.126 421.221 169.476C421.379 169.197 421.534 168.919 421.692 168.64C421.88 168.331 422.054 168.006 422.21 167.666C422.4 167.294 422.539 166.954 422.633 166.645C422.729 166.304 422.775 165.995 422.775 165.717C422.807 165.407 422.759 165.16 422.633 164.974C422.539 164.788 422.352 164.68 422.07 164.649C420.248 164.556 418.174 165.546 415.85 167.619C413.527 169.538 411.643 171.951 410.199 174.859C409.006 177.086 407.875 179.267 406.806 181.402H404.592C404.938 180.721 405.206 180.18 405.394 179.778C405.581 179.376 405.865 178.819 406.241 178.107C407.216 176.22 408.234 174.255 409.304 172.213C410.37 170.141 411.204 168.532 411.801 167.387C412.396 166.212 413.01 165.021 413.637 163.814C414.264 162.576 414.736 161.648 415.049 161.03C415.365 160.38 415.647 159.746 415.899 159.127C416.18 158.508 416.37 158.044 416.464 157.735C416.558 157.425 416.603 157.162 416.603 156.946C416.603 156.203 416.15 155.878 415.239 155.971C413.824 156.126 411.801 157.611 409.162 160.426C406.525 163.211 404.215 166.011 402.237 168.826C400.76 170.744 399.27 173.219 397.762 176.251L395.077 181.541H392.911L398.14 170.914C398.295 170.636 398.421 170.373 398.515 170.125L401.72 164H404.027L403.839 164.417C403.588 164.881 403.258 165.531 402.851 166.366L402.425 167.109C402.363 167.294 402.301 167.418 402.237 167.48L402.049 167.898L401.765 168.455C401.39 169.104 400.996 169.847 400.589 170.682C401.532 169.259 402.709 167.619 404.121 165.763C405.536 163.907 407.278 161.927 409.349 159.823C411.423 157.688 413.136 156.389 414.484 155.925C415.113 155.678 415.74 155.662 416.37 155.878C416.745 156.033 416.981 156.281 417.075 156.621C417.766 158.353 416.164 163.041 412.27 170.682C413.999 168.702 415.711 167.155 417.405 166.041C419.133 164.897 420.578 164.324 421.741 164.324C422.807 164.324 423.482 164.788 423.764 165.717C424.08 166.645 423.922 168.083 423.295 170.032C422.855 171.146 422.038 172.616 420.846 174.441C419.682 176.236 418.552 178.184 417.453 180.288C416.354 182.361 415.521 184.542 414.955 186.831C414.422 188.44 414.328 189.786 414.674 190.869C415.049 191.983 415.992 192.4 417.498 192.122C418.913 191.843 420.623 190.853 422.633 189.152C424.643 187.45 426.685 185.346 428.759 182.841C430.83 180.304 432.559 178.123 433.939 176.297C435.322 174.472 436.624 172.678 437.849 170.914ZM457.682 170.914L457.87 171.1C454.981 174.596 452.076 177.55 449.155 179.963C446.234 182.376 443.739 183.583 441.665 183.583C441.287 183.583 440.912 183.537 440.534 183.444C439.561 183.165 438.728 182.392 438.039 181.123C437.377 179.824 436.986 178.448 436.86 176.993C436.734 175.508 436.782 174.101 437.002 172.77C437.474 170.636 438.492 168.563 440.062 166.552C441.665 164.541 443.455 163.334 445.433 162.932C446.282 162.808 446.909 162.871 447.317 163.118C447.536 163.242 447.743 163.474 447.93 163.814C448.182 164.402 448.212 165.067 448.024 165.809C447.523 167.511 446.486 168.919 444.915 170.032C443.345 171.146 441.587 171.904 439.639 172.306C439.325 173.451 439.09 174.627 438.934 175.833C438.808 177.04 438.776 178.215 438.838 179.36C438.934 180.505 439.232 181.448 439.733 182.191C440.237 182.933 440.944 183.305 441.852 183.305C442.983 183.305 444.334 182.841 445.904 181.912C447.507 180.953 449.093 179.716 450.661 178.2C452.263 176.684 453.598 175.369 454.667 174.255C455.766 173.111 456.771 171.997 457.682 170.914ZM447.507 163.628C447.035 163.164 446.408 163.041 445.623 163.257C444.398 163.598 443.235 164.711 442.137 166.598C441.067 168.486 440.282 170.28 439.781 171.981C443.174 171.239 445.623 169.63 447.129 167.155C447.443 166.598 447.633 166.119 447.694 165.717C447.946 164.727 447.882 164.031 447.507 163.628ZM479.82 170.914L480.056 171.1C478.737 172.554 477.513 173.9 476.382 175.137C475.251 176.375 473.461 178.216 471.011 180.659C468.594 183.073 466.426 185.114 464.51 186.785C462.597 188.425 460.571 189.894 458.435 191.194C456.299 192.524 454.571 193.189 453.252 193.189C452.121 193.189 451.368 192.694 450.993 191.704C450.583 190.745 450.615 189.183 451.087 187.017C452.593 181.418 457.808 169.986 466.726 152.723H450.144L450.428 152.444H466.914C467.195 151.857 467.479 151.3 467.761 150.774L470.21 146.18H472.708C471.641 148.345 470.792 150.062 470.165 151.331L469.599 152.444H478.408L478.126 152.723H469.457C469.05 153.496 468.61 154.347 468.139 155.275C467.667 156.172 467.292 156.899 467.008 157.456C466.756 157.982 466.6 158.292 466.536 158.384C464.652 162.066 462.736 165.778 460.791 169.522C458.842 173.265 457.492 175.849 456.739 177.272C455.986 178.695 455.246 180.257 454.525 181.959C453.802 183.629 453.159 185.362 452.593 187.156C451.336 190.931 451.572 192.818 453.301 192.818C454.557 192.849 456.238 192.215 458.341 190.915C460.445 189.616 462.455 188.146 464.371 186.507C466.316 184.836 468.484 182.81 470.869 180.428C473.257 178.014 475.031 176.173 476.194 174.905C477.354 173.637 478.566 172.306 479.82 170.914ZM488.912 159.498C488.945 159.9 488.787 160.272 488.441 160.612C488.127 160.952 487.749 161.138 487.31 161.169C486.903 161.2 486.525 161.076 486.179 160.798C485.866 160.488 485.71 160.148 485.71 159.777C485.71 159.374 485.882 158.988 486.227 158.616C486.605 158.245 486.996 158.029 487.404 157.967C487.782 157.936 488.127 158.091 488.441 158.431C488.754 158.74 488.912 159.096 488.912 159.498ZM496.874 171.1C496.151 172.183 495.414 173.265 494.658 174.348C493.937 175.431 492.932 176.792 491.643 178.432C490.389 180.041 489.18 181.433 488.017 182.608C486.887 183.784 485.662 184.805 484.343 185.671C483.054 186.538 481.91 186.971 480.905 186.971C479.209 186.971 477.968 186.12 477.183 184.418C476.398 182.717 476.43 180.226 477.277 176.947C477.748 175.369 478.485 173.544 479.49 171.471C480.495 169.367 481.374 167.681 482.13 166.413C482.915 165.113 483.371 164.402 483.494 164.278H486.369C481.093 173.219 478.485 179.499 478.55 183.119C478.579 184.109 478.815 184.944 479.254 185.625C479.694 186.306 480.308 186.646 481.093 186.646C481.471 186.646 481.8 186.584 482.082 186.46C482.961 186.182 483.95 185.641 485.051 184.836C486.179 184.032 487.798 182.438 489.901 180.056C492.005 177.643 494.267 174.611 496.684 170.961L496.874 171.1ZM519.862 170.868L520.097 171.053C518.776 172.384 517.364 173.745 515.858 175.137C514.381 176.498 512.607 177.999 510.533 179.638C508.494 181.247 506.452 182.562 504.41 183.583C502.4 184.604 500.642 185.114 499.133 185.114C498.005 185.114 497.03 184.79 496.215 184.14C495.398 183.49 494.832 182.608 494.519 181.495C493.889 179.267 494.063 176.808 495.036 174.116C495.979 171.425 497.391 169.182 499.275 167.387C501.191 165.562 503.091 164.649 504.975 164.649C506.232 164.649 507.001 165.222 507.283 166.366C507.502 167.294 507.379 167.944 506.907 168.315C506.717 168.47 506.497 168.501 506.248 168.408C505.777 168.253 505.712 167.681 506.058 166.691C506.248 166.258 506.248 165.887 506.058 165.578C505.902 165.268 505.618 165.113 505.211 165.113C503.986 165.051 502.62 166.011 501.114 167.991C499.825 169.847 498.584 172.074 497.391 174.673C496.228 177.241 495.695 179.422 495.789 181.216C495.821 182.206 496.118 183.057 496.684 183.769C497.249 184.48 498.005 184.836 498.946 184.836C499.699 184.836 500.578 184.681 501.583 184.372C502.62 184.032 503.97 183.428 505.634 182.562C507.331 181.665 509.402 180.226 511.852 178.246C514.333 176.236 517.002 173.776 519.862 170.868ZM541.246 171.239C539.614 173.064 537.87 174.673 536.018 176.065C534.196 177.426 532.47 178.478 530.835 179.221C529.235 179.963 527.93 180.505 526.925 180.845C525.953 181.185 525.042 181.448 524.195 181.634C523.032 185.501 521.432 188.641 519.39 191.054C517.318 193.468 515.167 195.092 512.937 195.927C511.742 196.391 510.675 196.623 509.732 196.623C508.572 196.623 507.66 196.298 507.001 195.649C506.31 195.03 505.964 194.133 505.964 192.957C505.964 192.71 506.028 192.308 506.154 191.751C507.502 186.677 512.843 183.305 522.169 181.634C523.206 178.664 523.959 175.245 524.431 171.378L524.712 167.48C524.806 166.088 525.012 165.036 525.326 164.324C524.414 165.345 523.552 166.413 522.734 167.526C521.917 168.64 521.306 169.506 520.896 170.125C520.521 170.744 520.333 171.069 520.333 171.1L520.097 170.961C520.097 170.899 520.333 170.512 520.802 169.8C521.274 169.058 521.997 168.037 522.97 166.738C523.943 165.438 524.948 164.247 525.985 163.164C526.424 162.731 526.864 162.313 527.303 161.911C527.775 161.509 528.137 161.215 528.386 161.03L528.764 160.751L530.037 162.097C528.654 163.149 527.917 163.721 527.821 163.814C526.44 164.959 525.671 166.583 525.513 168.687C525.481 169.089 525.468 170.558 525.468 173.095C525.497 175.601 525.31 177.504 524.902 178.803C524.618 180.041 524.398 180.861 524.243 181.263C525.09 181.077 526.017 180.814 527.022 180.474C528.056 180.133 529.345 179.608 530.884 178.896C532.454 178.153 534.134 177.102 535.924 175.74C537.714 174.379 539.411 172.817 541.01 171.053L541.246 171.239ZM509.544 196.298C510.927 196.298 512.307 195.834 513.69 194.906C515.041 193.978 516.233 192.771 517.27 191.286C518.307 189.801 519.202 188.332 519.955 186.878C520.741 185.393 521.384 183.939 521.888 182.516L522.123 181.959C517.881 182.67 514.475 183.8 511.9 185.346C509.169 186.955 507.409 188.935 506.623 191.286C505.964 193.205 506.2 194.643 507.331 195.602C507.896 196.066 508.633 196.298 509.544 196.298Z" fill="black"/>
<path d="M125.155 113.52H54.1196V26.895H123.836V28.7512H60.7144V65.4432H120.633V67.2994H60.7144V111.664H125.155V113.52ZM170.251 114.758C157.941 114.758 148.52 112.798 141.988 108.879C135.498 104.919 132.001 98.6288 131.499 90.0076L137.905 87.4706C137.947 96.9582 140.606 103.682 145.882 107.642C151.2 111.561 159.323 113.52 170.251 113.52C179.798 113.52 187.084 112.179 192.109 109.498C197.175 106.776 199.708 102.857 199.708 97.7418C199.708 96.4218 199.457 95.2256 198.955 94.1532C198.452 93.0394 197.803 92.0906 197.008 91.3068C196.254 90.4818 195.186 89.7394 193.804 89.0794C192.464 88.3782 191.166 87.8006 189.91 87.3468C188.654 86.8932 187.063 86.4394 185.137 85.9856C183.211 85.5318 181.515 85.1812 180.049 84.9338C178.626 84.645 176.804 84.3356 174.585 84.0056L161.709 81.9638C159.197 81.5512 156.999 81.1594 155.115 80.7882C153.272 80.4168 151.2 79.9218 148.897 79.3032C146.594 78.6844 144.647 77.9832 143.056 77.1994C141.464 76.3744 139.936 75.4256 138.47 74.3532C137.047 73.2806 135.958 72.0018 135.205 70.5168C134.493 69.0318 134.137 67.3818 134.137 65.5668C134.137 59.8332 137.089 55.3577 142.993 52.14C148.939 48.9224 157.187 47.3138 167.739 47.3138C179.002 47.3138 187.691 49.2732 193.804 53.1918C199.918 57.1106 203.1 62.8856 203.351 70.5168L197.07 72.8062C197.112 64.35 194.684 58.2038 189.785 54.3676C184.886 50.49 177.537 48.5512 167.739 48.5512C158.444 48.5512 151.346 49.8506 146.447 52.4494C141.548 55.0068 139.099 58.7194 139.099 63.5868C139.099 64.9482 139.371 66.1856 139.915 67.2994C140.459 68.3718 141.318 69.3206 142.49 70.1456C143.663 70.9706 144.898 71.6924 146.196 72.3112C147.494 72.93 149.148 73.4868 151.158 73.9818C153.168 74.4768 155.01 74.8894 156.685 75.2194C158.401 75.5494 160.516 75.9206 163.028 76.3332L175.904 78.375C178.123 78.705 180.028 79.035 181.62 79.365C183.211 79.6538 185.074 80.0662 187.209 80.6024C189.387 81.1388 191.25 81.6956 192.799 82.2732C194.349 82.8506 195.94 83.5932 197.573 84.5006C199.206 85.3668 200.525 86.3156 201.53 87.3468C202.535 88.3782 203.351 89.6156 203.979 91.0594C204.649 92.4618 204.984 94.0088 204.984 95.7C204.984 101.888 202.011 106.611 196.065 109.869C190.12 113.128 181.515 114.758 170.251 114.758ZM244.427 114.634C237.979 114.634 233.059 113.272 229.668 110.55C226.276 107.786 224.58 103.888 224.58 98.8556V50.4076H208.501V48.5512H224.58V34.32L230.861 29.9268V48.5512H267.856V50.4076H230.861V97.2468C230.861 102.114 232.138 105.827 234.692 108.384C237.288 110.901 241.099 112.159 246.123 112.159C249.85 112.159 253.43 111.334 256.863 109.684C260.297 108.034 263.291 105.703 265.846 102.692L266.66 103.62C263.898 107.25 260.59 109.993 256.738 111.849C252.886 113.706 248.782 114.634 244.427 114.634ZM350.134 92.235L351.39 92.4824C349.464 99.825 345.275 105.373 338.828 109.127C332.42 112.881 324.006 114.758 313.578 114.758C300.096 114.758 289.734 111.87 282.49 106.095C275.287 100.279 271.685 91.9668 271.685 81.1594V80.9118C271.685 70.7644 275.37 62.6382 282.739 56.5332C290.152 50.3868 299.97 47.3138 312.198 47.3138C323.462 47.3138 332.589 50.0982 339.581 55.6668C346.615 61.2356 350.134 68.2688 350.134 76.7662C350.134 77.9624 350.091 78.8906 350.008 79.5506H278.28V80.9118V81.1594C278.28 91.5132 281.338 99.3506 287.45 104.672C293.563 109.993 302.567 112.654 314.457 112.654C324.298 112.654 332.19 111.004 338.136 107.704C344.083 104.404 348.081 99.2477 350.134 92.235ZM312.448 48.5512C301.814 48.5512 293.606 51.0056 287.828 55.9144C282.091 60.8232 278.931 68.0832 278.344 77.6944H343.413V77.4468C343.413 67.9594 340.795 60.7818 335.561 55.9144C330.37 51.0056 322.666 48.5512 312.448 48.5512ZM391.775 114.634C385.327 114.634 380.407 113.272 377.015 110.55C373.622 107.786 371.928 103.888 371.928 98.8556V50.4076H355.85V48.5512H371.928V34.32L378.207 29.9268V48.5512H415.202V50.4076H378.207V97.2468C378.207 102.114 379.486 105.827 382.039 108.384C384.636 110.901 388.447 112.159 393.471 112.159C397.196 112.159 400.777 111.334 404.212 109.684C407.645 108.034 410.638 105.703 413.192 102.692L414.009 103.62C411.244 107.25 407.937 109.993 404.086 111.849C400.233 113.706 396.13 114.634 391.775 114.634ZM431.594 38.0324H422.802V28.7512H431.594V38.0324ZM430.34 113.52H424.059V48.5512H430.34V113.52ZM482.91 114.758C470.055 114.758 460.172 111.87 453.263 106.095C446.355 100.279 442.9 91.9668 442.9 81.1594V80.9118C442.9 70.1044 446.333 61.8132 453.202 56.0382C460.067 50.2218 469.886 47.3138 482.658 47.3138C494.004 47.3138 502.987 49.6032 509.603 54.1818C516.217 58.7194 520.006 65.2162 520.971 73.6724L514.564 75.7144C513.307 57.6056 502.609 48.5512 482.47 48.5512C471.708 48.5512 463.521 51.2324 457.913 56.595C452.301 61.9162 449.495 70.0218 449.495 80.9118V81.1594C449.495 90.6056 452.51 98.2162 458.54 103.991C464.569 109.766 473.11 112.654 484.164 112.654C504.348 112.654 516.407 105.229 520.341 90.3788L521.598 90.6262C519.671 98.3812 515.36 104.342 508.66 108.508C502.003 112.674 493.42 114.758 482.91 114.758Z" fill="#55721E"/>
<path d="M155.47 299.558C143.16 299.558 133.739 297.599 127.207 293.679C120.717 289.719 117.221 283.428 116.718 274.808L123.124 272.271C123.166 281.759 125.825 288.481 131.101 292.441C136.419 296.361 144.542 298.32 155.47 298.32C165.017 298.32 172.303 296.979 177.327 294.299C182.394 291.575 184.927 287.657 184.927 282.541C184.927 281.221 184.676 280.025 184.174 278.953C183.671 277.839 183.022 276.891 182.227 276.107C181.473 275.281 180.405 274.539 179.023 273.879C177.683 273.179 176.385 272.601 175.129 272.147C173.873 271.693 172.282 271.239 170.356 270.785C168.43 270.331 166.734 269.982 165.268 269.734C163.845 269.444 162.023 269.135 159.804 268.805L146.929 266.764C144.416 266.352 142.218 265.959 140.334 265.589C138.491 265.217 136.419 264.721 134.116 264.103C131.813 263.484 129.866 262.783 128.275 261.999C126.683 261.174 125.155 260.226 123.69 259.153C122.266 258.081 121.177 256.802 120.424 255.317C119.712 253.832 119.356 252.182 119.356 250.367C119.356 244.633 122.308 240.158 128.212 236.94C134.158 233.722 142.406 232.114 152.958 232.114C164.222 232.114 172.91 234.073 179.023 237.992C185.137 241.911 188.319 247.686 188.57 255.317L182.289 257.606C182.331 249.15 179.903 243.004 175.003 239.168C170.105 235.29 162.756 233.351 152.958 233.351C143.662 233.351 136.565 234.651 131.666 237.249C126.767 239.807 124.318 243.519 124.318 248.387C124.318 249.748 124.59 250.986 125.134 252.099C125.679 253.172 126.537 254.121 127.709 254.946C128.882 255.771 130.117 256.492 131.415 257.111C132.713 257.73 134.367 258.287 136.377 258.782C138.387 259.277 140.229 259.689 141.904 260.019C143.621 260.349 145.735 260.721 148.248 261.133L161.123 263.175C163.342 263.505 165.247 263.835 166.839 264.164C168.43 264.454 170.293 264.866 172.428 265.402C174.606 265.938 176.469 266.495 178.018 267.073C179.568 267.651 181.159 268.393 182.792 269.301C184.425 270.167 185.744 271.115 186.749 272.147C187.754 273.179 188.57 274.415 189.198 275.859C189.868 277.261 190.203 278.808 190.203 280.5C190.203 286.688 187.23 291.411 181.284 294.669C175.338 297.929 166.734 299.558 155.47 299.558ZM208.166 298.32H201.885V211.695H208.166V233.351C208.166 238.838 207.768 245.706 206.973 253.956L208.292 254.327C210.469 247.067 214.489 241.56 220.351 237.806C226.213 234.011 233.352 232.114 241.768 232.114C251.818 232.114 259.459 234.321 264.693 238.734C269.97 243.107 272.607 249.418 272.607 257.668V298.32H266.325V258.287C266.325 249.996 264.17 243.973 259.857 240.219C255.586 236.466 249.012 234.589 240.135 234.589C230.044 234.589 222.193 237.332 216.582 242.818C210.972 248.304 208.166 256.039 208.166 266.022V298.32ZM324.801 299.558C319.021 299.558 313.768 298.938 309.036 297.702C304.303 296.422 300.118 294.505 296.473 291.947C292.831 289.349 289.983 285.904 287.932 281.614C285.923 277.282 284.918 272.271 284.918 266.579V265.093C284.918 259.483 285.923 254.533 287.932 250.243C289.983 245.953 292.831 242.509 296.473 239.91C300.118 237.311 304.303 235.372 309.036 234.094C313.809 232.774 319.064 232.114 324.801 232.114C330.536 232.114 335.77 232.774 340.502 234.094C345.235 235.372 349.421 237.311 353.065 239.91C356.707 242.509 359.534 245.953 361.544 250.243C363.594 254.533 364.62 259.483 364.62 265.093V266.579C364.62 272.271 363.594 277.282 361.544 281.614C359.534 285.904 356.707 289.349 353.065 291.947C349.421 294.505 345.235 296.422 340.502 297.702C335.77 298.938 330.536 299.558 324.801 299.558ZM324.801 298.32C346.95 298.32 358.025 287.739 358.025 266.579V265.093C358.025 243.932 346.95 233.351 324.801 233.351C302.607 233.351 291.513 243.932 291.513 265.093V266.579C291.513 287.739 302.607 298.32 324.801 298.32ZM417.756 232.114C430.359 232.114 440.051 235.022 446.837 240.838C453.619 246.654 457.012 254.987 457.012 265.835V266.083C457.012 276.809 453.619 285.078 446.837 290.896C440.051 296.67 430.359 299.558 417.756 299.558C409.006 299.558 401.677 297.599 395.773 293.679C389.87 289.719 385.893 284.151 383.84 276.973L382.521 277.345C383.191 284.069 383.526 291.905 383.526 300.857V319.976H377.245V233.351H384.218C384.218 238.879 383.652 245.953 382.521 254.574L383.84 254.946C385.893 247.686 389.87 242.076 395.773 238.116C401.677 234.114 409.006 232.114 417.756 232.114ZM417.254 234.651C406.618 234.651 398.327 237.497 392.38 243.189C386.477 248.882 383.526 256.431 383.526 265.835V266.083C383.526 275.447 386.477 282.955 392.38 288.605C398.327 294.257 406.618 297.082 417.254 297.082C439.363 297.082 450.417 286.749 450.417 266.083V265.835C450.417 245.046 439.363 234.651 417.254 234.651Z" fill="#55721E"/>
<path fill-rule="evenodd" clip-rule="evenodd" d="M667.112 13.7872C662.997 14.8601 657.93 17.3111 656.663 18.8417C656.2 19.4013 657.786 18.8828 660.186 17.6895C665.847 14.8763 672.798 14.6218 677.486 17.0559C679.168 17.9301 680.782 19.0302 681.073 19.5017C681.4 20.0327 681.284 20.1625 680.768 19.842C679.111 18.8153 672.16 18.1222 668.941 18.6627L665.649 19.2157L668.787 19.3074C677.279 19.556 683.214 27.2962 685.776 41.4667C686.212 43.8744 687.024 51.0322 687.582 57.3738C689.129 74.9656 691.319 84.1373 696.513 94.7656C699.673 101.235 706.893 109.29 712.697 112.826C723.258 119.258 736.93 121.303 745.853 117.786C753.077 114.938 758.563 108.79 760.024 101.905L760.492 99.7049L758.915 102.061C758.015 103.408 755.619 105.262 753.325 106.387C749.961 108.037 748.339 108.356 743.322 108.353C735.727 108.349 730.437 106.41 725.116 101.682C721.532 98.497 721.383 98.431 723.138 100.805C726.095 104.806 732.297 108.703 737.895 110.076C743.884 111.545 743.954 112.033 738.036 111.068C732.494 110.163 722.941 105.537 718.57 101.64C712.778 96.478 707.987 87.8622 705.488 78.1199C704.567 74.527 701.869 59.2476 701.862 57.5785C701.859 56.9969 703.029 58.482 704.461 60.8787C708.044 66.8763 713.113 71.859 718.249 74.4354C726.13 78.3876 736.355 76.9795 739.783 71.4695L740.924 69.6361L739.128 71.2371C736.582 73.5084 733.805 74.4031 729.3 74.4031C721.658 74.4031 713.852 69.045 709.817 61.0298C708.637 58.6873 706.518 52.4044 705.109 47.069C701.785 34.4856 698.633 27.8492 693.338 22.2827C685.958 14.525 676.29 11.3934 667.112 13.7872ZM628.98 27.3248C627.882 34.3198 624.937 40.1422 619.979 45.1189C614.126 50.9934 608.949 53.2273 590.41 57.8769C567.288 63.6766 558.572 68.3878 554.625 77.2222C552.3 82.4256 552.487 89.2688 555.076 93.6992C557.585 97.991 558.354 98.2213 556.152 94.0212C554.957 91.7389 554.512 89.6135 554.492 86.0837C554.458 80.056 556.256 77.0594 562.396 72.9114C567.887 69.2012 575.468 66.8287 587.778 64.9673C597.931 63.4316 605.845 61.3327 610.576 58.9191C612.069 58.1578 613.55 57.5513 613.868 57.5711C615.434 57.6687 603.339 63.1507 595.863 65.7308C580.206 71.1358 571.453 77.154 567.493 85.2396C565.791 88.7144 565.449 90.3308 565.509 94.6255C565.594 100.719 567.756 108.438 571.418 115.729C573.597 120.067 578.856 128.674 579.328 128.674C579.41 128.674 577.888 125.456 575.945 121.523C571.243 112.01 569.953 106.667 570.321 98.2352C570.565 92.6468 570.93 91.0224 572.568 88.2186C574.826 84.3559 578.503 80.9126 582.618 78.8078C586.534 76.8049 586.77 76.9531 583.812 79.5573C580.32 82.6317 576.879 88.2392 575.235 93.5379C572.249 103.155 574.33 115.834 581.099 129.277C583.616 134.277 591.058 145.528 594.281 149.209C596.167 151.361 596.004 150.902 593.273 146.368C591.48 143.395 588.945 138.115 587.638 134.634C585.431 128.76 585.258 127.649 585.224 119.126C585.188 110.17 585.246 109.825 587.626 104.977C589.388 101.387 591.088 99.1967 593.758 97.0816C597.604 94.0329 599.328 92.1144 600.888 89.1464C601.617 87.7581 601.287 87.9143 599.32 89.8863C597.949 91.2607 594.441 93.4418 591.525 94.7333L586.222 97.0816L587.899 93.9933C590.412 89.3627 600.537 79.5691 606.909 75.6036C610.005 73.677 615.248 70.9547 618.56 69.5539C626.161 66.3402 633.637 61.3803 637.481 57.0013C641.411 52.5254 645.448 44.1685 645.903 39.5672C646.176 36.8097 646.104 36.3843 645.614 37.8533C644.779 40.3556 640.989 47.3558 640.652 47.0184C640.51 46.8769 641.03 45.3074 641.807 43.5312C642.583 41.7542 643.409 38.6505 643.643 36.6337C644.092 32.7621 643.94 33.0283 641.751 39.9339C638.757 49.3807 626.176 59.2381 609.018 65.5804C600.973 68.5551 599.911 68.3842 607.04 65.2629C616.979 60.9132 622.835 56.0574 626.675 48.9824C630.341 42.2294 631.871 31.684 630.269 24.2116C629.888 22.436 629.661 22.9853 628.98 27.3248ZM646.38 34.0668C646.38 35.0752 646.546 35.4881 646.749 34.9835C646.952 34.4797 646.952 33.6546 646.749 33.1501C646.546 32.6462 646.38 33.0584 646.38 34.0668ZM663.454 36.9131C661.845 37.6538 659.902 38.9666 659.135 39.8305L657.742 41.4007H660.307C663.943 41.4007 667.526 44.0665 669.672 48.3686C671.408 51.8492 671.523 52.8701 671.953 68.536C672.432 86.0148 672.914 88.8589 676.486 95.2665C679.086 99.9315 677.159 98.7391 670.44 91.5247C663.983 84.5935 661.608 81.1876 658.113 73.8486C655.517 68.3974 655.408 67.8547 655.408 60.3411C655.408 56.0354 655.18 52.92 654.901 53.4187C653.277 56.3156 651.378 65.8826 651.319 71.4549L651.253 77.7033L649.891 72.5696C649.141 69.7461 648.316 64.9607 648.056 61.9355C647.641 57.0974 647.86 54.2342 649.513 42.8674C649.718 41.4557 649.401 42.1157 648.808 44.3342C646.674 52.3252 645.937 62.842 646.917 71.3331C649.147 90.6447 657.701 106.072 674.05 120.266C697.543 140.665 711.918 170.584 707.426 189.735C704.691 201.399 699.387 207.982 685.297 217.205C683.314 218.502 689.066 216.143 694.176 213.562C704.354 208.422 713.326 200.939 718.073 193.631C729.823 175.541 723.377 154.939 698.43 130.856C693.677 126.267 690.281 122.798 690.885 123.147C695.513 125.824 709.811 136.131 714.263 140C735.428 158.391 740.253 176.562 728.218 192.558C726.213 195.223 722.753 198.81 720.529 200.53C713.123 206.259 716.265 204.818 727.824 197.185C739.388 189.548 747.213 181.669 751.334 173.512C753.197 169.827 753.424 168.618 753.425 162.41C753.426 155.846 753.278 155.17 750.883 150.74C745.527 140.833 736.409 133.645 714.904 122.378C702.303 115.775 696.57 112.395 700.028 113.604C702.443 114.449 714.548 116.919 716.121 116.887C716.925 116.872 715.234 116.241 712.362 115.487C705.426 113.663 700.261 110.954 695.792 106.794C688.92 100.397 684.497 91.6883 682.868 81.3475C682.234 77.319 682.197 77.5544 682.414 84.3038C682.58 89.4984 683.087 92.7744 684.154 95.5334C686.27 101.012 684.328 99.0478 681.46 92.8096C677.931 85.1355 676.872 78.7587 677.13 66.7458C677.405 53.9717 676.216 49.3902 671.365 44.5264C668.107 41.2599 667.979 40.8558 670.635 42.2235C675.217 44.5843 678.22 48.9612 679.63 55.335L680.521 59.3687L680.583 53.4106C680.651 46.8395 679.376 42.1231 676.779 39.3347C673.095 35.3781 668.573 34.5567 663.454 36.9131ZM734.781 49.6513C737.807 54.6273 736.009 63.5761 731.308 66.9313C728.744 68.7626 723.632 70.1729 721.931 69.5187C721.058 69.1828 720.803 69.2936 721.152 69.8583C721.972 71.1886 727.443 72.3687 730.318 71.834C740.848 69.8781 744.697 57.4626 737.127 49.872C733.886 46.6224 732.882 46.5278 734.781 49.6513ZM746.308 60.4878C747.207 73.0925 740.321 81.0036 728.449 81.0036C724.5 81.0036 722.528 80.6024 719.89 79.264C718.005 78.3069 716.823 77.9607 717.266 78.4947C719.249 80.8914 725.542 83.2037 730.079 83.2037C738.293 83.2037 746.545 76.9897 747.666 69.958C748.351 65.6596 749.654 67.2958 749.089 71.7468C748.092 79.6182 743.771 85.5278 737.267 87.9172C734.464 88.9469 734.451 88.9681 736.602 89.0121C742.078 89.1229 749.747 83.324 751.61 77.6623C753.518 71.8692 751.535 62.5721 747.207 57.013C745.984 55.4428 745.956 55.5528 746.308 60.4878ZM755.751 75.5032C757.298 81.3864 755.815 88.0272 751.92 92.6593C746.131 99.5436 733.148 100.642 726.92 94.7751C723.775 91.8122 725.274 94.8323 728.608 98.1751C735.989 105.575 747.184 105.366 754.614 97.6889C760.409 91.7022 761.166 81.6849 756.334 74.9267C755.192 73.3309 755.183 73.3404 755.751 75.5032ZM615.177 76.1544C612.61 77.2772 608.104 82.0743 606.357 85.5432C605.183 87.8732 605.241 87.8483 607.786 84.9118C609.316 83.1473 611.793 81.3336 613.64 80.6259C616.833 79.4033 616.868 79.4077 624.54 82.0362C628.773 83.4868 634.436 85.6628 637.124 86.8721C639.813 88.0815 642.104 89.0708 642.215 89.0708C642.814 89.0708 640.981 81.9922 640.173 81.1818C639.311 80.3186 620.257 75.0961 618.219 75.1651C617.753 75.1812 616.384 75.6256 615.177 76.1544ZM629.519 87.7874C629.436 89.1559 628.508 89.3216 626.149 88.3895C625.301 88.0536 623.569 88.2032 622.027 88.7452C620.072 89.4324 619.153 89.4632 618.553 88.8618C617.953 88.2604 617.737 88.4071 617.737 89.4162C617.737 90.1709 617.192 91.392 616.527 92.1298C615.861 92.8676 615.677 93.4711 616.118 93.4711C616.559 93.4711 617.149 93.0986 617.429 92.6439C617.775 92.0836 618.168 92.2259 618.646 93.081C619.124 93.9368 619.076 94.6196 618.498 95.1917C617.851 95.8334 617.018 95.3567 615.06 93.2218C612.962 90.9351 612.575 90.7283 612.999 92.1217C613.286 93.0656 613.976 94.3585 614.532 94.9959C616.449 97.1916 615.539 97.254 610.057 95.3039C609.233 95.0105 609.552 95.455 610.788 96.3225L612.983 97.8619L611.154 97.9536C610.148 98.0042 609.161 98.0489 608.96 98.0541C608.759 98.0592 607.442 97.8781 606.034 97.6514L603.474 97.24L606.4 98.6364C608.009 99.405 610.761 100.042 612.515 100.053C615.591 100.071 615.656 100.118 614.329 101.355C613.572 102.061 613.272 102.391 613.662 102.088C614.053 101.786 615.471 101.538 616.812 101.538C618.998 101.538 619.173 101.687 618.494 102.957C617.625 104.586 617.465 106.708 618.297 105.572C618.592 105.169 619.468 104.344 620.241 103.739C621.561 102.707 621.62 102.753 621.192 104.472C620.784 106.113 620.837 106.17 621.695 105.022C622.918 103.384 625.784 103.318 625.784 104.928C625.784 105.775 626.047 105.911 626.698 105.398C628.248 104.178 632.087 103.752 633.035 104.695C633.721 105.378 633.809 105.287 633.429 104.289C633.161 103.582 632.597 103.005 632.175 103.005C631.754 103.005 631.954 102.402 632.619 101.664C633.285 100.926 633.83 99.9359 633.83 99.4636C633.83 98.9913 634.181 98.6049 634.61 98.6049C635.476 98.6049 638.381 100.038 638.95 100.746C639.151 100.996 640.268 101.622 641.433 102.135L643.55 103.07L642.321 101.191C641.232 99.5245 641.221 99.2627 642.216 98.8799C643.986 98.1993 643.525 97.306 641.596 97.6757C639.392 98.0981 638.636 96.9159 639.737 94.77C640.443 93.3949 640.423 93.2643 639.625 94.0212C638.103 95.463 637.721 95.1205 637.99 92.5544C638.211 90.4518 638.156 90.3652 637.522 91.821C637.127 92.7282 636.463 93.4711 636.048 93.4711C635.633 93.4711 635.288 92.7282 635.282 91.821C635.275 90.9138 634.951 89.6759 634.561 89.0708C634.009 88.2142 633.85 88.4181 633.841 89.9934C633.831 91.7822 633.672 91.9178 632.469 91.1646C631.72 90.6953 630.767 89.4551 630.352 88.4078C629.825 87.0789 629.573 86.8912 629.519 87.7874ZM623.589 92.0044C623.589 93.7029 621.966 93.9449 620.714 92.4327C620.031 91.6076 620.126 91.3231 621.173 91.051C623.463 90.4555 623.589 90.5053 623.589 92.0044ZM627.552 90.9828C628.189 91.2277 628.709 91.7455 628.709 92.1342C628.709 93.1536 625.589 92.5441 625.231 91.4543C624.904 90.4562 625.741 90.286 627.552 90.9828ZM630.721 98.7882C630.26 100.176 627.978 100.373 627.978 99.0251C627.978 98.3452 628.603 97.8715 629.502 97.8715C630.396 97.8715 630.9 98.2506 630.721 98.7882ZM625.207 100.82C626.457 103.022 626.456 103.025 624.841 102.185C622.317 100.872 621.376 99.9623 621.812 99.2554C622.586 97.9991 623.967 98.6357 625.207 100.82ZM591.348 101.482C587.495 105.346 589.05 112.087 596.269 122.807C598.306 125.832 600.643 129.627 601.462 131.241C603.597 135.444 605.463 136.91 608.307 136.619L610.696 136.374L613.033 145.725C614.319 150.867 615.063 155.076 614.687 155.076C614.31 155.076 611.108 152.188 607.569 148.659C600.752 141.858 597.736 136.845 596.817 130.787C595.828 124.27 595.021 125.337 595.225 132.891C595.336 137.026 595.359 140.409 595.275 140.409C595.192 140.408 594.282 138.969 593.254 137.21C590.747 132.92 589.269 128.383 588.538 122.729L587.933 118.04L587.851 121.707C587.613 132.325 591.824 140.904 604.769 156.176C611.108 163.653 614.446 170.226 614.446 175.228C614.446 180.902 612.513 183.011 603.222 187.479C589.029 194.304 583.372 199.531 581.75 207.316C581.091 210.482 581.163 211.925 582.145 215.303C583.423 219.695 588.925 228.678 589.949 228.043C590.285 227.834 591.236 228.614 592.061 229.775C592.886 230.937 594.384 232.429 595.391 233.09L597.22 234.292L595.41 230.877C591.793 224.058 593.668 215.7 600.127 209.85C603.408 206.878 603.202 206.569 599.091 208.291C589.549 212.289 585.669 218.591 588.898 224.852C589.531 226.079 589.898 227.235 589.714 227.42C589.53 227.605 588.517 226.025 587.465 223.908C584.023 216.981 585.248 210.443 590.905 205.555C593.846 203.013 600.66 199.906 607.553 197.963C611.311 196.904 615.51 195.566 616.883 194.991C618.256 194.416 619.508 193.945 619.664 193.945C620.057 193.945 619.32 198.821 617.616 207.497C615.791 216.788 612.423 223.377 606.408 229.423C598.925 236.947 589.533 241.475 578.238 243.004L572.752 243.747L580.432 243.445C594.679 242.884 605.718 238.394 614.519 229.581C619.101 224.993 620.42 222.979 625.708 212.484C633.738 196.554 638.971 190.927 651.43 184.832C655.438 182.871 662.741 177.217 662.098 176.572C661.916 176.39 660.362 176.961 658.643 177.84C656.244 179.067 654.629 179.364 651.687 179.119C646.966 178.727 642.454 176.109 631.937 167.662C623.812 161.136 619.898 157.047 617.717 152.806C615.683 148.853 610.423 134.206 610.423 132.498C610.423 131.667 608.737 129.351 606.621 127.272C603.069 123.786 602.289 121.974 605.566 124.823C606.733 125.838 606.669 125.594 605.258 123.657C602.087 119.304 601.619 118.114 602.036 115.473C602.297 113.826 602.066 112.39 601.391 111.467C598.674 107.746 596.55 115.941 599.206 119.893C599.877 120.89 602.327 123.722 604.652 126.185C608.901 130.686 610.516 134.008 609.13 135.397C607.862 136.668 605.756 135.736 604.215 133.221C603.405 131.898 600.623 127.612 598.034 123.695C588.636 109.482 587.555 102.177 594.546 100.15C596.46 99.5949 596.578 99.4585 595.188 99.4042C594.217 99.3668 592.568 100.259 591.348 101.482ZM593.869 107.154C592.958 109.342 592.904 110.444 593.579 113.132C594.564 117.052 596.001 119.991 597.574 121.3C598.612 122.163 598.616 122.004 597.622 119.62C597.018 118.172 596.486 115.903 596.438 114.579L596.351 112.173L595.869 114.373C595.469 116.198 595.297 116.344 594.859 115.229C594.077 113.243 594.218 107.521 595.087 105.89C595.504 105.11 595.652 104.472 595.416 104.472C595.18 104.472 594.484 105.679 593.869 107.154ZM566.028 121.523C557.825 130.19 559.637 141.886 571.172 154.709L573.811 157.643L571.671 153.593C570.494 151.365 569.328 148.064 569.08 146.259L568.629 142.975L570.055 145.977C570.839 147.629 574.024 151.754 577.133 155.145C583.05 161.6 586.269 167.132 586.269 170.843C586.269 174.303 583.115 180.224 578.716 185.022C573.744 190.445 572.375 193.025 571.87 197.933C571.154 204.892 575.158 214.184 582.319 222.181L585.603 225.847L583.456 222.181C576.942 211.054 577.541 201.58 585.186 194.833C586.928 193.295 591.066 190.573 594.381 188.784C605.826 182.608 610.924 176.026 609.069 169.82C608.007 166.264 602.78 161.293 596.672 158.028C591.613 155.325 586.466 151.088 583.967 147.57C583.079 146.32 581.78 143.289 581.079 140.835L579.805 136.374L579.753 139.727C579.677 144.645 581.43 148.973 585.861 154.805C592.54 163.595 594.271 168.183 592.872 173.391C592.036 176.503 587.972 181.669 585.25 183.078C583.978 183.736 584.046 183.517 585.661 181.756C589.168 177.932 590.667 174.712 590.67 170.997C590.674 166.34 589.02 163.343 582.292 155.809C574.361 146.929 573.01 141.315 577.062 134.083L578.656 131.241L574.972 126.334C572.946 123.635 570.989 121.508 570.622 121.606C569.464 121.918 565.587 129.458 564.581 133.358L563.613 137.108L563.915 132.435C564.123 129.211 564.878 126.424 566.348 123.451C567.52 121.079 568.435 119.14 568.382 119.14C568.328 119.14 567.269 120.213 566.028 121.523ZM645.533 125.373C644.588 126.382 644.182 127.207 644.631 127.207C645.08 127.207 645.65 126.877 645.899 126.474C646.148 126.07 647.195 125.74 648.226 125.74C649.81 125.74 649.96 125.569 649.191 124.64C647.96 123.154 647.533 123.239 645.533 125.373ZM655.847 124.551C655.184 125.353 655.355 125.638 656.672 125.924C657.587 126.122 658.992 126.545 659.797 126.864C661.091 127.375 661.055 127.216 659.487 125.491C657.461 123.262 657.011 123.145 655.847 124.551ZM743.917 130.372C748.541 133.541 753.935 139.31 755.918 143.208C758.046 147.39 757.831 147.808 755.198 144.605C753.96 143.099 751.41 140.832 749.529 139.566L746.111 137.264L749.51 140.852C754.527 146.15 756.182 149.929 756.538 156.909C756.767 161.386 756.488 163.906 755.36 167.543L753.882 172.31L756.788 169.01C768.564 155.635 770.19 144.513 761.488 136.853C757.377 133.235 750.065 129.962 742.454 128.335C740.519 127.921 740.691 128.162 743.917 130.372ZM679.235 133.441C683.928 139.877 690.403 153.188 691.924 159.523C693.556 166.324 693.425 175.819 691.62 181.584C689.892 187.1 688.302 189.86 689.145 185.878C689.956 182.046 689.622 172.747 688.543 169.121C687.605 165.972 687.593 166.016 687.589 172.788C687.586 178.898 687.353 180.103 685.457 183.865C683.097 188.544 676.924 194.865 671.866 197.777C670.056 198.819 664.131 201.58 658.7 203.912C645.025 209.783 639.534 213.172 632.667 219.98C625.959 226.632 622.613 232.52 621.309 239.965C619.705 249.127 623.277 259.473 630.687 267.133C633.748 270.296 634.258 270.643 632.775 268.556C631.696 267.038 629.952 263.91 628.899 261.604C625.586 254.348 625.838 242.985 629.473 235.726C633.624 227.436 645.063 218.337 653.945 216.259C655.677 215.854 655.179 216.396 651.58 218.833C639.862 226.765 633.046 241.16 635.19 253.445C637.385 266.025 645.191 274.685 665.146 286.673C671.826 290.687 678.047 296.748 680.369 301.507C683.029 306.959 683.183 314.518 680.73 319.248C678.569 323.414 680.038 322.484 682.647 318.033C684.489 314.891 684.667 313.941 684.667 307.253C684.667 301.232 684.374 299.264 683.025 296.253C681.428 292.685 681.425 292.636 682.919 294.412C685.61 297.612 688.073 303.3 688.48 307.254C689.054 312.83 687.2 317.731 682.61 322.765C678.359 327.429 678.908 327.532 687.007 323.595C692.315 321.014 697.878 315.807 699.762 311.654C701.631 307.536 701.561 299.98 699.607 295.011C697.84 290.516 693.076 283.278 688.137 277.584L684.667 273.582L689.422 277.196C701.441 286.331 706.461 293.997 706.461 303.215C706.461 308.997 704.578 313.643 700.632 317.6C697.406 320.834 698.295 320.787 702.28 317.513C709.474 311.603 711.67 300.387 707.445 291.137C705.917 287.791 703.281 284.565 696.069 277.216C682.31 263.195 677.949 255.148 678.61 245.004C679.018 238.748 681.418 233.184 685.957 227.977C688.944 224.549 688.968 224.483 686.628 226.137C680.196 230.684 675.5 239.825 675.556 247.694C675.6 253.888 677.191 257.946 682.661 265.817C683.569 267.123 682.885 266.776 680.278 264.607C675.29 260.457 673.846 258.807 670.903 253.896C666.05 245.799 665.86 237.354 670.338 228.624C673.179 223.083 674.723 221.402 681.722 216.226C697.466 204.584 704.051 194.103 704.051 180.69C704.051 177.407 703.538 172.695 702.91 170.216C700.316 159.971 691.048 144.81 680.603 133.729L675.493 128.307L679.235 133.441ZM651.568 137.98C652.272 138.164 653.424 138.164 654.128 137.98C654.833 137.796 654.256 137.645 652.848 137.645C651.44 137.645 650.864 137.796 651.568 137.98ZM640.501 142.238L636.566 143.856L643.061 144.425C651.207 145.138 654.49 145.138 662.66 144.423L669.18 143.853L665.586 142.392C662.797 141.258 660.025 140.896 653.214 140.775C645.615 140.64 643.908 140.837 640.501 142.238ZM647.362 152.483C650.158 153.833 655.501 153.844 658.334 152.506L660.529 151.469L658.334 151.989C655.472 152.667 649.316 152.655 646.996 151.966C645.613 151.555 645.702 151.682 647.362 152.483ZM579.437 163.666C580.021 166.826 579.349 169.179 577.094 171.866C574.102 175.43 570.414 175.981 564.706 173.716C563.385 173.192 563.344 173.261 564.286 174.422C568.103 179.121 575.659 178.762 579.636 173.693C581.455 171.374 581.671 165.949 580.057 163.143L579.002 161.309L579.437 163.666ZM672.049 168.835L666.746 173.041L666.73 176.709C666.701 183.237 662.011 190.389 654.476 195.394C649.649 198.598 651.448 198.128 659.802 194.001C672.738 187.611 679.181 180.004 679.181 171.126C679.181 166.913 678.698 164.601 677.823 164.62C677.564 164.625 674.966 166.522 672.049 168.835ZM744.843 192.902C744.151 196.752 740.864 201.272 736.635 204.189C732.105 207.315 729.447 208.346 720.388 210.492C716.131 211.5 711.99 212.678 711.187 213.109C710.124 213.68 709.864 213.67 710.231 213.075C710.508 212.625 713.257 210.776 716.339 208.968C723.78 204.601 722.221 204.796 713.78 209.29C701.435 215.859 692.961 223.722 688.425 232.813C685.19 239.296 684.088 244.632 684.428 252.16C684.772 259.767 687.121 265.073 692.558 270.523C701.231 279.22 711.768 281.607 720.852 276.933C724.726 274.94 727.434 269.576 727.39 263.984C727.371 261.563 727.058 258.923 726.693 258.117C726.216 257.062 726.148 257.409 726.451 259.352C727.937 268.897 717.674 274.687 707.526 270.029C702.666 267.798 698.052 263.117 695.421 257.75C693.612 254.058 693.448 253.002 693.481 245.282C693.513 237.523 693.707 236.365 695.906 230.812C697.22 227.491 698.54 224.623 698.839 224.437C699.139 224.252 699.242 226.072 699.068 228.483C698.344 238.507 705.131 246.852 714.838 247.877L718.315 248.244L714.658 247.162C712.646 246.567 710.754 246.065 710.454 246.048C709.091 245.967 703.691 240.227 702.49 237.582C700.005 232.111 701.391 225.193 705.783 221.136C708.067 219.027 708.287 219.617 706.252 222.393C704.451 224.851 703.315 230.646 704.022 233.774C705.917 242.165 713.665 247.26 722.114 245.671C723.834 245.348 725.843 244.141 727.605 242.374C730.789 239.183 731.392 237.047 728.457 239.362C725.866 241.406 719.959 241.434 716.663 239.419C711.697 236.384 709.989 230.322 712.797 225.704C714.874 222.288 717.115 221.109 724.651 219.471C733.084 217.639 738.097 215.439 742.111 211.81C745.076 209.131 748.667 202.942 748.648 200.546C748.643 199.941 748.04 200.769 747.307 202.386C744.753 208.021 738.512 211.654 728.556 213.299C725.826 213.75 725.913 213.664 729.85 212.007C739.85 207.8 746.206 200.05 745.614 192.787L745.379 189.912L744.843 192.902ZM728.007 226.236C729.656 228.388 729.109 232.006 726.783 234.338C724.531 236.596 722.558 236.989 719.912 235.708C718.369 234.961 718.363 234.973 719.735 236.075C721.972 237.872 726.472 237.537 728.589 235.415C730.945 233.053 731.012 229.155 728.738 226.769C727.833 225.82 727.504 225.579 728.007 226.236ZM664.058 233.256C662.404 236.877 662.22 238.074 662.509 243.34C662.847 249.504 664.076 252.909 667.979 258.483C669.406 260.522 669.16 260.371 666.786 257.75C665.141 255.935 662.978 252.817 661.979 250.822C658.783 244.437 659.821 235.636 664.384 230.431C666.123 228.449 666.078 228.831 664.058 233.256ZM715.771 234.766C715.762 235.235 716.768 236.472 718.006 237.516C721.143 240.164 725.842 240.161 728.697 237.51L730.75 235.605L728.64 237.143C725.087 239.733 719.885 238.987 717.051 235.479C716.356 234.619 715.78 234.298 715.771 234.766ZM694.967 250.783C696.077 258.196 702.205 266.058 708.299 267.888C711.796 268.938 713.154 268.957 716.579 268.004C723.843 265.981 726.54 256.766 721.547 251.025C720.128 249.393 720.095 249.388 720.834 250.918C722.94 255.283 720.844 261.362 716.684 262.947C714.002 263.97 709.298 262.424 706.472 259.591C705.141 258.256 704.051 257.448 704.051 257.797C704.051 259.167 708.95 263.922 711.725 265.246L714.658 266.644L711.1 266.311C704.727 265.715 698.287 259.444 695.628 251.245L694.527 247.849L694.967 250.783ZM668.676 296.717C672.395 300.717 673.601 303.767 673.571 309.089C673.542 314.084 671.806 318.773 669.209 320.87C668.165 321.713 668.227 321.395 669.521 319.268C671.424 316.139 671.659 311.03 670.075 307.23C669.492 305.831 668.822 304.687 668.586 304.687C668.35 304.687 668.535 305.394 668.997 306.258C669.469 307.144 669.694 309.549 669.51 311.766C668.938 318.684 663.598 323.601 655.952 324.252C652.491 324.546 651.145 324.297 648.314 322.834C645.365 321.311 644.977 321.246 645.581 322.377C646.417 323.943 650.019 326.732 653.58 328.569C657.816 330.756 664.949 330.401 670.128 327.745C675.88 324.795 678.502 320.632 678.999 313.657C679.578 305.548 675.944 299.094 668.748 295.447L666.38 294.248L668.676 296.717Z" fill="#55721E"/>
</svg>
